<?xml version="1.0" encoding="UTF-8"?><svg id="uuid-051a50e3-cb12-4a2c-8fc8-41a191ae5e25" xmlns="http://www.w3.org/2000/svg" xmlns:xlink="http://www.w3.org/1999/xlink" viewBox="0 0 754.8 90.72"><defs><filter id="uuid-5e4745c1-26f6-4623-80ee-bc16f18612cc" filterUnits="userSpaceOnUse"><feOffset dx="7" dy="7"/><feGaussianBlur result="uuid-bfff0907-3bf8-493d-b518-0d0927a090ab" stdDeviation="5"/><feFlood flood-color="#1d1d1b" flood-opacity=".3"/><feComposite in2="uuid-bfff0907-3bf8-493d-b518-0d0927a090ab" operator="in"/><feComposite in="SourceGraphic"/></filter></defs><rect x="8.22" y="8.2" width="724.42" height="60.47" rx="8" ry="8" style="fill:#e8e8e5; filter:url(#uuid-5e4745c1-26f6-4623-80ee-bc16f18612cc); opacity:.7; stroke-width:0px;"/><path d="m36.79,31.03s-.03,0-.04,0c-.45-.02-.8-.41-.77-.86l.53-10.67c.03-.67-.42-2.1-.78-2.59-.36.48-.81,1.92-.78,2.59l.53,10.67c.02.45-.32.83-.77.86-.43.02-.83-.32-.86-.77l-.53-10.67c-.04-.84.42-2.95,1.31-3.89.41-.43.82-.52,1.1-.52s.69.09,1.1.52c.89.93,1.35,3.05,1.31,3.89l-.53,10.67c-.02.44-.38.77-.81.77Z" style="fill:#e41c1f; stroke-width:0px;"/><path d="m22.4,42.02c-.26,0-.51-.02-.73-.08-.58-.14-.86-.45-1-.69-.14-.24-.27-.64-.1-1.21.36-1.23,1.96-2.69,2.71-3.08l9.5-4.87c.4-.21.89-.05,1.1.35.21.4.05.89-.35,1.1l-9.5,4.87c-.6.3-1.61,1.41-1.85,1.97.59.07,2.07-.26,2.63-.62l8.97-5.79c.38-.24.88-.14,1.13.24.24.38.14.88-.24,1.13l-8.97,5.8c-.58.38-2.08.89-3.29.89Z" style="fill:#e41c1f; stroke-width:0px;"/><path d="m49.05,42.02c-1.21,0-2.71-.51-3.29-.88l-8.97-5.8c-.38-.24-.49-.75-.24-1.13.25-.38.75-.49,1.13-.24l8.97,5.8c.56.36,2.03.69,2.63.62-.24-.55-1.26-1.66-1.85-1.97l-9.5-4.87c-.4-.21-.56-.7-.35-1.1.21-.4.7-.56,1.1-.35l9.5,4.87c.75.38,2.35,1.84,2.71,3.08.17.57.04.97-.1,1.21-.14.24-.42.55-1,.69-.22.05-.47.08-.73.08Zm.27-1.45h0,0Z" style="fill:#e41c1f; stroke-width:0px;"/><path d="m33.96,60.39s-.02,0-.03,0c-.45-.02-.8-.4-.78-.85l.93-24.37c.02-.45.41-.8.85-.78.45.02.8.4.78.85l-.93,24.37c-.02.44-.38.78-.81.78Z" style="fill:#e41c1f; stroke-width:0px;"/><path d="m37.5,60.39c-.44,0-.8-.35-.81-.78l-.93-24.37c-.02-.45.33-.83.78-.85.42-.01.83.33.85.78l.93,24.37c.02.45-.33.83-.78.85-.01,0-.02,0-.03,0Z" style="fill:#e41c1f; stroke-width:0px;"/><path d="m23.99,62.25c-.36,0-.69-.24-.79-.6-.12-.43.14-.88.57-1,7.82-2.14,16.08-2.14,23.9,0,.43.12.69.57.57,1-.12.43-.57.69-1,.57-7.53-2.06-15.5-2.06-23.03,0-.07.02-.14.03-.22.03Z" style="fill:#e41c1f; stroke-width:0px;"/><path d="m35.73,35.67c-1.71,0-3.11-1.39-3.11-3.11s1.39-3.11,3.11-3.11,3.11,1.39,3.11,3.11-1.39,3.11-3.11,3.11Zm0-4.58c-.81,0-1.48.66-1.48,1.48s.66,1.48,1.48,1.48,1.48-.66,1.48-1.48-.66-1.48-1.48-1.48Z" style="fill:#fff; stroke-width:0px;"/><path d="m44.37,32.28c-.45,0-.82-.37-.82-.82,0-2.09-.81-4.05-2.29-5.53-.32-.32-.32-.83,0-1.15.32-.32.83-.32,1.15,0,1.79,1.79,2.77,4.16,2.77,6.69,0,.45-.37.82-.82.82Z" style="fill:#e41c1f; stroke-width:0px;"/><path d="m27.09,32.28c-.45,0-.82-.37-.82-.82,0-2.53.98-4.9,2.77-6.69.32-.32.83-.32,1.15,0,.32.32.32.83,0,1.15-1.48,1.48-2.29,3.44-2.29,5.53,0,.45-.37.82-.82.82Z" style="fill:#e41e20; stroke-width:0px;"/><path d="m61.95,31.92h2.44v12h7.06v2.26h-9.5v-14.26Z" style="fill:#1d4477; stroke-width:0px;"/><path d="m75.2,46.09c-.61-.27-1.12-.64-1.54-1.12-.42-.48-.74-1.05-.97-1.72s-.34-1.4-.34-2.2.11-1.56.34-2.23c.23-.67.55-1.25.97-1.73.42-.48.92-.85,1.51-1.11.59-.26,1.25-.39,1.98-.39.89,0,1.65.2,2.26.6.61.4,1.09.93,1.44,1.6l.18-1.92h1.96v10.32h-1.86l-.22-1.96c-.32.65-.77,1.19-1.36,1.62s-1.37.64-2.34.64c-.73,0-1.4-.13-2.01-.4Zm3.72-2c.37-.16.68-.39.94-.68.26-.29.46-.64.59-1.04.13-.4.2-.85.2-1.34,0-.97-.26-1.77-.78-2.38-.52-.61-1.24-.92-2.16-.92-.45,0-.86.08-1.22.24-.36.16-.67.39-.93.68-.26.29-.46.64-.59,1.05-.13.41-.2.85-.2,1.33s.07.92.2,1.33c.13.41.33.76.59,1.05.26.29.57.52.93.68.36.16.77.24,1.22.24s.84-.08,1.21-.24Zm-2.48-9.92c-.37-.41-.55-.93-.55-1.56,0-.67.18-1.19.54-1.57.36-.38.85-.57,1.48-.57.59,0,1.07.2,1.45.6s.57.91.57,1.54c0,.29-.05.57-.15.83-.1.26-.24.49-.41.7-.17.21-.38.37-.63.48-.25.11-.52.17-.83.17-.61,0-1.1-.21-1.47-.62Zm2.08-.88c.15-.19.23-.41.23-.68s-.08-.49-.23-.67-.36-.27-.61-.27c-.28,0-.5.09-.65.27s-.23.4-.23.67.08.49.24.68c.16.19.37.28.64.28s.46-.09.61-.28Z" style="fill:#1d4477; stroke-width:0px;"/><path d="m87.55,35.86l.26,1.62c.19-.25.4-.5.63-.73s.5-.44.79-.61c.29-.17.62-.31.99-.41.37-.1.76-.15,1.19-.15.52,0,1.01.08,1.46.24.45.16.85.42,1.2.78s.62.82.81,1.39c.19.57.29,1.26.29,2.07v6.12h-2.38v-6.06c0-.77-.16-1.35-.47-1.74s-.76-.58-1.35-.58-1.12.19-1.6.56c-.48.37-.93.83-1.36,1.38v6.44h-2.38v-10.32h1.92Z" style="fill:#1d4477; stroke-width:0px;"/><path d="m99.63,47.58c.21.19.46.37.73.52s.57.28.9.38c.33.1.68.15,1.07.15s.74-.06,1.1-.18c.36-.12.68-.32.97-.59s.52-.63.69-1.08c.17-.45.26-1,.26-1.67v-.66c-.35.45-.79.82-1.33,1.11-.54.29-1.22.43-2.03.43s-1.46-.13-2.07-.39c-.61-.26-1.12-.62-1.53-1.08-.41-.46-.73-1.01-.94-1.64-.21-.63-.32-1.32-.32-2.07s.11-1.45.33-2.1.54-1.21.95-1.67c.41-.46.91-.82,1.5-1.08.59-.26,1.26-.39,2.02-.39.85,0,1.57.16,2.16.49.59.33,1.06.77,1.42,1.33l.28-1.52h1.98v8.98c0,1.91-.44,3.34-1.32,4.31-.88.97-2.19,1.45-3.94,1.45-1.19,0-2.2-.21-3.04-.62-.84-.41-1.51-.99-2-1.74l1.64-1.28c.13.21.31.42.52.61Zm.12-5.5c.13.38.32.71.57.98.25.27.55.49.91.64s.77.23,1.24.23c.91,0,1.61-.29,2.12-.86.51-.57.76-1.32.76-2.24,0-.44-.06-.85-.19-1.24-.13-.39-.31-.72-.56-.99-.25-.27-.55-.49-.9-.64s-.76-.23-1.23-.23-.86.08-1.23.23c-.37.15-.67.37-.92.64-.25.27-.44.6-.57.98-.13.38-.2.8-.2,1.25s.07.87.2,1.25Z" style="fill:#1d4477; stroke-width:0px;"/><path d="m112.62,46.09c-.61-.27-1.12-.64-1.54-1.12-.42-.48-.74-1.05-.97-1.72s-.34-1.4-.34-2.2.11-1.56.34-2.23c.23-.67.55-1.25.97-1.73.42-.48.92-.85,1.51-1.11.59-.26,1.25-.39,1.98-.39.89,0,1.65.2,2.26.6.61.4,1.09.93,1.44,1.6l.18-1.92h1.96v10.32h-1.86l-.22-1.96c-.32.65-.77,1.19-1.36,1.62s-1.37.64-2.34.64c-.73,0-1.4-.13-2.01-.4Zm3.72-2c.37-.16.68-.39.94-.68.26-.29.46-.64.59-1.04.13-.4.2-.85.2-1.34,0-.97-.26-1.77-.78-2.38-.52-.61-1.24-.92-2.16-.92-.45,0-.86.08-1.22.24-.36.16-.67.39-.93.68-.26.29-.46.64-.59,1.05-.13.41-.2.85-.2,1.33s.07.92.2,1.33c.13.41.33.76.59,1.05.26.29.57.52.93.68.36.16.77.24,1.22.24s.84-.08,1.21-.24Zm-2.48-9.92c-.37-.41-.55-.93-.55-1.56,0-.67.18-1.19.54-1.57.36-.38.85-.57,1.48-.57.59,0,1.07.2,1.45.6s.57.91.57,1.54c0,.29-.05.57-.15.83-.1.26-.24.49-.41.7-.17.21-.38.37-.63.48-.25.11-.52.17-.83.17-.61,0-1.1-.21-1.47-.62Zm2.08-.88c.15-.19.23-.41.23-.68s-.08-.49-.23-.67-.36-.27-.61-.27c-.28,0-.5.09-.65.27s-.23.4-.23.67.08.49.24.68c.16.19.37.28.64.28s.46-.09.61-.28Z" style="fill:#1d4477; stroke-width:0px;"/><path d="m124.25,46.08c-.79-.27-1.46-.64-2.02-1.09l1.04-1.78c.19.16.42.32.71.47.29.15.59.29.91.4.32.11.65.21.99.28.34.07.67.11.99.11.63,0,1.11-.11,1.45-.32.34-.21.51-.5.51-.86,0-.23-.07-.41-.22-.54-.15-.13-.35-.25-.61-.34-.26-.09-.56-.18-.9-.27s-.7-.2-1.09-.33c-.39-.12-.78-.25-1.18-.4s-.77-.34-1.11-.57-.62-.53-.83-.88c-.21-.35-.32-.79-.32-1.31,0-.45.09-.87.28-1.26s.46-.71.83-.98c.37-.27.81-.48,1.34-.63.53-.15,1.14-.23,1.83-.23.83,0,1.57.12,2.23.36s1.28.55,1.85.94l-1.08,1.72c-.4-.28-.86-.52-1.37-.71-.51-.19-1.07-.29-1.67-.29-.55,0-.99.1-1.32.29s-.5.46-.5.79c0,.23.08.41.23.56.15.15.36.28.61.39.25.11.54.21.87.29.33.08.66.16,1.01.24.43.11.85.24,1.28.39s.81.35,1.15.58c.34.23.62.53.83.88.21.35.32.8.32,1.33,0,.97-.38,1.75-1.15,2.32-.77.57-1.88.86-3.33.86-.92,0-1.77-.14-2.56-.41Z" style="fill:#1d4477; stroke-width:0px;"/><path d="m135.75,46.09c-.67-.27-1.23-.64-1.7-1.12-.47-.48-.83-1.05-1.09-1.72s-.39-1.41-.39-2.24.11-1.51.34-2.18.56-1.24.99-1.72c.43-.48.97-.85,1.6-1.12.63-.27,1.36-.4,2.17-.4.73,0,1.39.11,1.98.34.59.23,1.08.55,1.48.98.4.43.71.95.93,1.57.22.62.33,1.31.33,2.07,0,.24-.01.48-.04.71-.03.23-.06.48-.1.73h-7.12c.13.73.43,1.32.9,1.77.47.45,1.13.67,2,.67.61,0,1.19-.1,1.72-.31.53-.21.99-.44,1.38-.71l.98,1.7c-.53.4-1.13.73-1.8.99s-1.43.39-2.3.39-1.59-.13-2.26-.4Zm.79-8.27c-.33.13-.59.3-.8.53-.21.23-.36.49-.46.78s-.16.6-.17.92h4.94c.03-.71-.15-1.29-.53-1.74s-.99-.68-1.83-.68c-.44,0-.82.06-1.15.19Z" style="fill:#1d4477; stroke-width:0px;"/><path d="m146.35,35.86l.26,1.62c.19-.25.4-.5.63-.73s.5-.44.79-.61c.29-.17.62-.31.99-.41.37-.1.76-.15,1.19-.15.52,0,1.01.08,1.46.24.45.16.85.42,1.2.78s.62.82.81,1.39c.19.57.29,1.26.29,2.07v6.12h-2.38v-6.06c0-.77-.16-1.35-.47-1.74s-.76-.58-1.35-.58-1.12.19-1.6.56c-.48.37-.93.83-1.36,1.38v6.44h-2.38v-10.32h1.92Z" style="fill:#1d4477; stroke-width:0px;"/><path d="m274.46,30.28s-.03,0-.04,0c-.45-.02-.8-.41-.77-.86l.53-10.67c.03-.67-.42-2.1-.78-2.59-.36.48-.81,1.92-.78,2.59l.53,10.67c.02.45-.32.83-.77.86-.43.02-.83-.32-.86-.77l-.53-10.67c-.04-.84.42-2.95,1.31-3.89.41-.43.82-.52,1.1-.52s.69.09,1.1.52c.89.93,1.35,3.05,1.31,3.89l-.53,10.67c-.02.44-.38.77-.81.77Z" style="fill:#305ca7; stroke-width:0px;"/><path d="m260.07,41.27c-.26,0-.51-.02-.73-.08-.58-.14-.86-.45-1-.69-.14-.24-.27-.64-.1-1.21.36-1.23,1.96-2.69,2.71-3.08l9.5-4.87c.4-.21.89-.05,1.1.35.21.4.05.89-.35,1.1l-9.5,4.87c-.6.3-1.61,1.41-1.85,1.97.59.07,2.07-.26,2.63-.62l8.97-5.79c.38-.24.88-.14,1.13.24.24.38.14.88-.24,1.13l-8.97,5.8c-.58.38-2.08.89-3.29.89Z" style="fill:#305ca7; stroke-width:0px;"/><path d="m286.73,41.27c-1.21,0-2.71-.51-3.29-.88l-8.97-5.8c-.38-.24-.49-.75-.24-1.13.25-.38.75-.49,1.13-.24l8.97,5.79c.56.36,2.03.69,2.63.62-.24-.55-1.26-1.66-1.85-1.97l-9.5-4.87c-.4-.21-.56-.7-.35-1.1.21-.4.7-.56,1.1-.35l9.5,4.87c.75.38,2.35,1.84,2.71,3.08.17.57.04.97-.1,1.21-.14.24-.42.55-1,.69-.22.05-.47.08-.73.08Zm.27-1.45h0,0Z" style="fill:#305ca7; stroke-width:0px;"/><path d="m271.63,59.64s-.02,0-.03,0c-.45-.02-.8-.4-.78-.85l.93-24.37c.02-.45.41-.8.85-.78.45.02.8.4.78.85l-.93,24.37c-.02.44-.38.78-.81.78Z" style="fill:#305ca7; stroke-width:0px;"/><path d="m275.17,59.64c-.44,0-.8-.35-.81-.78l-.93-24.37c-.02-.45.33-.83.78-.85.42-.01.83.33.85.78l.93,24.37c.02.45-.33.83-.78.85-.01,0-.02,0-.03,0Z" style="fill:#305ca7; stroke-width:0px;"/><path d="m261.67,61.5c-.36,0-.69-.24-.79-.6-.12-.43.14-.88.57-1,7.82-2.14,16.08-2.14,23.9,0,.43.12.69.57.57,1-.12.44-.57.69-1,.57-7.53-2.06-15.5-2.06-23.03,0-.07.02-.14.03-.22.03Z" style="fill:#305ca7; stroke-width:0px;"/><path d="m273.4,34.92c-1.71,0-3.11-1.39-3.11-3.11s1.39-3.11,3.11-3.11,3.11,1.39,3.11,3.11-1.39,3.11-3.11,3.11Zm0-4.58c-.81,0-1.48.66-1.48,1.48s.66,1.48,1.48,1.48,1.48-.66,1.48-1.48-.66-1.48-1.48-1.48Z" style="fill:#fff; stroke-width:0px;"/><path d="m282.04,31.53c-.45,0-.82-.37-.82-.82,0-2.09-.81-4.05-2.29-5.53-.32-.32-.32-.83,0-1.15.32-.32.83-.32,1.15,0,1.79,1.79,2.77,4.16,2.77,6.69,0,.45-.37.82-.82.82Z" style="fill:#305ca7; stroke-width:0px;"/><path d="m264.76,31.53c-.45,0-.82-.37-.82-.82,0-2.53.98-4.9,2.77-6.69.32-.32.83-.32,1.15,0,.32.32.32.83,0,1.15-1.48,1.48-2.29,3.44-2.29,5.53,0,.45-.37.82-.82.82Z" style="fill:#305ca7; stroke-width:0px;"/><path d="m308.6,31.38c.86.37,1.59.88,2.19,1.53.6.65,1.07,1.44,1.4,2.36.33.92.5,1.93.5,3.02s-.16,2.08-.49,2.99c-.33.91-.79,1.7-1.39,2.36-.6.66-1.33,1.18-2.18,1.56-.85.38-1.81.57-2.88.57s-1.97-.19-2.82-.56c-.85-.37-1.59-.89-2.2-1.55-.61-.66-1.09-1.45-1.43-2.36-.34-.91-.51-1.92-.51-3.01s.17-2.08.5-2.99c.33-.91.8-1.7,1.41-2.36.61-.66,1.34-1.18,2.19-1.55s1.81-.56,2.86-.56,1.99.18,2.85.55Zm-4.76,2.11c-.55.27-1.02.63-1.41,1.09-.39.46-.68,1.01-.89,1.65-.21.64-.31,1.33-.31,2.06s.1,1.44.31,2.08c.21.64.5,1.19.88,1.65.38.46.85.82,1.41,1.08.56.26,1.2.39,1.92.39s1.36-.13,1.93-.4c.57-.27,1.04-.63,1.42-1.09s.67-1.01.87-1.64c.2-.63.3-1.32.3-2.07s-.1-1.46-.31-2.09c-.21-.63-.5-1.18-.89-1.64s-.86-.82-1.42-1.08c-.56-.26-1.19-.39-1.9-.39s-1.36.13-1.91.4Zm.92-6.12c.19.21.29.49.29.84,0,.32-.09.59-.28.82s-.45.34-.78.34-.6-.11-.79-.33-.29-.5-.29-.83c0-.36.1-.64.29-.85.19-.21.46-.31.79-.31s.58.11.77.32Zm3.63,0c.2.21.3.49.3.84,0,.32-.1.59-.29.82s-.46.34-.79.34-.58-.11-.79-.33c-.21-.22-.31-.5-.31-.83,0-.36.1-.64.29-.85.19-.21.46-.31.81-.31.32,0,.58.11.78.32Z" style="fill:#1d4477; stroke-width:0px;"/><path d="m316.05,45.33c-.79-.27-1.46-.64-2.02-1.09l1.04-1.78c.19.16.42.32.71.47.29.15.59.29.91.4.32.11.65.21.99.28.34.07.67.11.99.11.63,0,1.11-.11,1.45-.32.34-.21.51-.5.51-.86,0-.23-.07-.41-.22-.54-.15-.13-.35-.25-.61-.34-.26-.09-.56-.18-.9-.27s-.7-.2-1.09-.33c-.39-.12-.78-.25-1.18-.4s-.77-.34-1.11-.57-.62-.53-.83-.88c-.21-.35-.32-.79-.32-1.31,0-.45.09-.87.28-1.26s.46-.71.83-.98c.37-.27.81-.48,1.34-.63.53-.15,1.14-.23,1.83-.23.83,0,1.57.12,2.23.36s1.28.55,1.85.94l-1.08,1.72c-.4-.28-.86-.52-1.37-.71-.51-.19-1.07-.29-1.67-.29-.55,0-.99.1-1.32.29s-.5.46-.5.79c0,.23.08.41.23.56.15.15.36.28.61.39.25.11.54.21.87.29.33.08.66.16,1.01.24.43.11.85.24,1.28.39s.81.35,1.15.58c.34.23.62.53.83.88.21.35.32.8.32,1.33,0,.97-.38,1.75-1.15,2.32-.77.57-1.88.86-3.33.86-.92,0-1.77-.14-2.56-.41Z" style="fill:#1d4477; stroke-width:0px;"/><path d="m327.67,45.48c-.45-.19-.84-.47-1.17-.84-.33-.37-.59-.84-.78-1.41-.19-.57-.29-1.23-.29-1.99v-4.16h-1.6v-1.96h1.6v-3.24h2.4v3.24h2.9l-.18,1.96h-2.72v4.32c0,.85.17,1.45.5,1.79.33.34.76.51,1.28.51.24,0,.49-.03.76-.09.27-.06.53-.14.78-.23l.1,1.94c-.36.13-.72.24-1.09.32-.37.08-.7.12-1.01.12-.53,0-1.03-.09-1.48-.28Z" style="fill:#1d4477; stroke-width:0px;"/><path d="m334.82,45.34c-.61-.27-1.12-.64-1.54-1.12-.42-.48-.74-1.05-.97-1.72s-.34-1.4-.34-2.2.11-1.56.34-2.23c.23-.67.55-1.25.97-1.73.42-.48.92-.85,1.51-1.11.59-.26,1.25-.39,1.98-.39.89,0,1.65.2,2.26.6.61.4,1.09.93,1.44,1.6l.18-1.92h1.96v10.32h-1.86l-.22-1.96c-.32.65-.77,1.19-1.36,1.62s-1.37.64-2.34.64c-.73,0-1.4-.13-2.01-.4Zm3.72-2c.37-.16.68-.39.94-.68.26-.29.46-.64.59-1.04.13-.4.2-.85.2-1.34,0-.97-.26-1.77-.78-2.38-.52-.61-1.24-.92-2.16-.92-.45,0-.86.08-1.22.24-.36.16-.67.39-.93.68-.26.29-.46.64-.59,1.05-.13.41-.2.85-.2,1.33s.07.92.2,1.33c.13.41.33.76.59,1.05.26.29.57.52.93.68.36.16.77.24,1.22.24s.84-.08,1.21-.24Z" style="fill:#1d4477; stroke-width:0px;"/><path d="m348.23,45.44l-4.22-10.32h2.58l2.9,8.06,2.88-8.06h2.6l-4.26,10.32h-2.48Z" style="fill:#1d4477; stroke-width:0px;"/><path d="m358.34,45.34c-.61-.27-1.12-.64-1.54-1.12-.42-.48-.74-1.05-.97-1.72s-.34-1.4-.34-2.2.11-1.56.34-2.23c.23-.67.55-1.25.97-1.73.42-.48.92-.85,1.51-1.11.59-.26,1.25-.39,1.98-.39.89,0,1.65.2,2.26.6.61.4,1.09.93,1.44,1.6l.18-1.92h1.96v10.32h-1.86l-.22-1.96c-.32.65-.77,1.19-1.36,1.62s-1.37.64-2.34.64c-.73,0-1.4-.13-2.01-.4Zm3.72-2c.37-.16.68-.39.94-.68.26-.29.46-.64.59-1.04.13-.4.2-.85.2-1.34,0-.97-.26-1.77-.78-2.38-.52-.61-1.24-.92-2.16-.92-.45,0-.86.08-1.22.24-.36.16-.67.39-.93.68-.26.29-.46.64-.59,1.05-.13.41-.2.85-.2,1.33s.07.92.2,1.33c.13.41.33.76.59,1.05.26.29.57.52.93.68.36.16.77.24,1.22.24s.84-.08,1.21-.24Z" style="fill:#1d4477; stroke-width:0px;"/><path d="m371.15,45.44h-2.38v-14.94h2.38v14.94Z" style="fill:#1d4477; stroke-width:0px;"/><path d="m376.15,45.44h-2.38v-14.94h2.38v14.94Z" style="fill:#1d4477; stroke-width:0px;"/><path d="m512.1,30.28s-.03,0-.04,0c-.45-.02-.8-.41-.77-.86l.53-10.67c.03-.67-.42-2.1-.78-2.59-.36.48-.81,1.92-.78,2.59l.53,10.67c.02.45-.32.83-.77.86-.43.02-.83-.32-.86-.77l-.53-10.67c-.04-.84.42-2.95,1.31-3.89.41-.43.82-.52,1.1-.52s.69.09,1.1.52c.89.93,1.35,3.05,1.31,3.89l-.53,10.67c-.02.44-.38.77-.81.77Z" style="fill:#4d732c; stroke-width:0px;"/><path d="m497.72,41.27c-.26,0-.51-.02-.73-.08-.58-.14-.86-.45-1-.69-.14-.24-.27-.64-.1-1.21.36-1.23,1.96-2.69,2.71-3.08l9.5-4.87c.4-.21.89-.05,1.1.35.21.4.05.89-.35,1.1l-9.5,4.87c-.6.3-1.61,1.41-1.85,1.97.59.07,2.07-.26,2.63-.62l8.97-5.79c.38-.24.88-.14,1.13.24.24.38.14.88-.24,1.13l-8.97,5.79c-.58.38-2.08.89-3.29.89Z" style="fill:#4d732c; stroke-width:0px;"/><path d="m524.37,41.27c-1.21,0-2.71-.51-3.29-.88l-8.97-5.8c-.38-.24-.49-.75-.24-1.13.25-.38.75-.49,1.13-.24l8.97,5.8c.56.36,2.03.69,2.63.62-.24-.55-1.26-1.66-1.85-1.97l-9.5-4.87c-.4-.21-.56-.7-.35-1.1.21-.4.7-.56,1.1-.35l9.5,4.87c.75.38,2.35,1.84,2.71,3.08.17.57.04.97-.1,1.21-.14.24-.42.55-1,.69-.22.05-.47.08-.73.08Zm.27-1.45h0,0Z" style="fill:#4d732c; stroke-width:0px;"/><path d="m509.27,59.64s-.02,0-.03,0c-.45-.02-.8-.4-.78-.85l.93-24.37c.02-.45.41-.8.85-.78.45.02.8.4.78.85l-.93,24.37c-.02.44-.38.78-.81.78Z" style="fill:#4d732c; stroke-width:0px;"/><path d="m512.81,59.64c-.44,0-.8-.35-.81-.78l-.93-24.37c-.02-.45.33-.83.78-.85.42-.01.83.33.85.78l.93,24.37c.02.45-.33.83-.78.85-.01,0-.02,0-.03,0Z" style="fill:#4d732c; stroke-width:0px;"/><path d="m499.31,61.5c-.36,0-.69-.24-.79-.6-.12-.43.14-.88.57-1,7.82-2.14,16.08-2.14,23.9,0,.43.12.69.57.57,1-.12.43-.57.69-1,.57-7.53-2.06-15.5-2.06-23.03,0-.07.02-.14.03-.22.03Z" style="fill:#4d732c; stroke-width:0px;"/><path d="m511.04,34.92c-1.71,0-3.11-1.39-3.11-3.11s1.39-3.11,3.11-3.11,3.11,1.39,3.11,3.11-1.39,3.11-3.11,3.11Zm0-4.58c-.81,0-1.48.66-1.48,1.48s.66,1.48,1.48,1.48,1.48-.66,1.48-1.48-.66-1.48-1.48-1.48Z" style="fill:#fff; stroke-width:0px;"/><path d="m519.68,31.53c-.45,0-.82-.37-.82-.82,0-2.09-.81-4.05-2.29-5.53-.32-.32-.32-.83,0-1.15.32-.32.83-.32,1.15,0,1.79,1.79,2.77,4.16,2.77,6.69,0,.45-.37.82-.82.82Z" style="fill:#4d732c; stroke-width:0px;"/><path d="m502.4,31.53c-.45,0-.82-.37-.82-.82,0-2.53.98-4.9,2.77-6.69.32-.32.83-.32,1.15,0,.32.32.32.83,0,1.15-1.48,1.48-2.29,3.44-2.29,5.53,0,.45-.37.82-.82.82Z" style="fill:#4d732c; stroke-width:0px;"/><path d="m538.33,35.11v10.32h-2.38v-14.26h2.36l7.56,10.36v-10.36h2.36v14.26h-2.34l-7.56-10.32Z" style="fill:#1d4477; stroke-width:0px;"/><path d="m553.32,45.34c-.61-.27-1.12-.64-1.54-1.12-.42-.48-.74-1.05-.97-1.72s-.34-1.4-.34-2.2.11-1.56.34-2.23c.23-.67.55-1.25.97-1.73.42-.48.92-.85,1.51-1.11.59-.26,1.25-.39,1.98-.39.89,0,1.65.2,2.26.6.61.4,1.09.93,1.44,1.6l.18-1.92h1.96v10.32h-1.86l-.22-1.96c-.32.65-.77,1.19-1.36,1.62s-1.37.64-2.34.64c-.73,0-1.4-.13-2.01-.4Zm3.72-2c.37-.16.68-.39.94-.68.26-.29.46-.64.59-1.04.13-.4.2-.85.2-1.34,0-.97-.26-1.77-.78-2.38-.52-.61-1.24-.92-2.16-.92-.45,0-.86.08-1.22.24-.36.16-.67.39-.93.68-.26.29-.46.64-.59,1.05-.13.41-.2.85-.2,1.33s.07.92.2,1.33c.13.41.33.76.59,1.05.26.29.57.52.93.68.36.16.77.24,1.22.24s.84-.08,1.21-.24Zm-2.04-12c.19.21.29.49.29.84,0,.32-.09.59-.28.82-.19.23-.45.34-.78.34s-.6-.11-.79-.33-.29-.5-.29-.83c0-.36.1-.64.29-.85.19-.21.46-.31.79-.31s.58.11.77.32Zm3.63,0c.2.21.3.49.3.84,0,.32-.1.59-.29.82s-.46.34-.79.34-.58-.11-.79-.33-.31-.5-.31-.83c0-.36.1-.64.29-.85.19-.21.46-.31.81-.31.32,0,.58.11.78.32Z" style="fill:#1d4477; stroke-width:0px;"/><path d="m565.69,35.11l.32,1.7c.12-.25.27-.5.45-.74.18-.24.38-.45.61-.64.23-.19.48-.33.77-.44s.6-.16.95-.16c.31,0,.59.03.86.1.27.07.47.13.62.18v2.34c-.16-.05-.36-.11-.6-.16-.24-.05-.49-.08-.76-.08-.51,0-.93.11-1.28.33s-.63.5-.85.83c-.22.33-.38.7-.49,1.09-.11.39-.16.77-.16,1.13v4.84h-2.38v-10.32h1.94Z" style="fill:#1d4477; stroke-width:0px;"/><path d="m574.23,45.44h-2.38v-14.94h2.38v14.94Z" style="fill:#1d4477; stroke-width:0px;"/><path d="m579.07,30.31c.27.28.4.63.4,1.06s-.12.79-.37,1.1c-.25.31-.6.46-1.05.46-.43,0-.77-.15-1.03-.44-.26-.29-.39-.67-.39-1.12,0-.43.13-.78.39-1.06s.6-.42,1.01-.42.77.14,1.04.42Zm.16,4.8v10.32h-2.38v-10.32h2.38Z" style="fill:#1d4477; stroke-width:0px;"/><path d="m583.79,46.83c.21.19.46.37.73.52s.57.28.9.38c.33.1.68.15,1.07.15s.74-.06,1.1-.18c.36-.12.68-.32.97-.59s.52-.63.69-1.08c.17-.45.26-1,.26-1.67v-.66c-.35.45-.79.82-1.33,1.11-.54.29-1.22.43-2.03.43s-1.46-.13-2.07-.39c-.61-.26-1.12-.62-1.53-1.08-.41-.46-.73-1.01-.94-1.64-.21-.63-.32-1.32-.32-2.07s.11-1.45.33-2.1.54-1.21.95-1.67c.41-.46.91-.82,1.5-1.08.59-.26,1.26-.39,2.02-.39.85,0,1.57.16,2.16.49.59.33,1.06.77,1.42,1.33l.28-1.52h1.98v8.98c0,1.91-.44,3.34-1.32,4.31-.88.97-2.19,1.45-3.94,1.45-1.19,0-2.2-.21-3.04-.62-.84-.41-1.51-.99-2-1.74l1.64-1.28c.13.21.31.42.52.61Zm.12-5.5c.13.38.32.71.57.98.25.27.55.49.91.64.36.15.77.23,1.24.23.91,0,1.61-.29,2.12-.86.51-.57.76-1.32.76-2.24,0-.44-.06-.85-.19-1.24-.13-.39-.31-.72-.56-.99-.25-.27-.55-.49-.9-.64s-.76-.23-1.23-.23-.86.08-1.23.23c-.37.15-.67.37-.92.64-.25.27-.44.6-.57.98-.13.38-.2.8-.2,1.25s.07.87.2,1.25Z" style="fill:#1d4477; stroke-width:0px;"/><path d="m596.45,46.83c.21.19.46.37.73.52s.57.28.9.38c.33.1.68.15,1.07.15s.74-.06,1.1-.18c.36-.12.68-.32.97-.59s.52-.63.69-1.08c.17-.45.26-1,.26-1.67v-.66c-.35.45-.79.82-1.33,1.11-.54.29-1.22.43-2.03.43s-1.46-.13-2.07-.39c-.61-.26-1.12-.62-1.53-1.08-.41-.46-.73-1.01-.94-1.64-.21-.63-.32-1.32-.32-2.07s.11-1.45.33-2.1.54-1.21.95-1.67c.41-.46.91-.82,1.5-1.08.59-.26,1.26-.39,2.02-.39.85,0,1.57.16,2.16.49.59.33,1.06.77,1.42,1.33l.28-1.52h1.98v8.98c0,1.91-.44,3.34-1.32,4.31-.88.97-2.19,1.45-3.94,1.45-1.19,0-2.2-.21-3.04-.62-.84-.41-1.51-.99-2-1.74l1.64-1.28c.13.21.31.42.52.61Zm.12-5.5c.13.38.32.71.57.98.25.27.55.49.91.64.36.15.77.23,1.24.23.91,0,1.61-.29,2.12-.86.51-.57.76-1.32.76-2.24,0-.44-.06-.85-.19-1.24-.13-.39-.31-.72-.56-.99-.25-.27-.55-.49-.9-.64s-.76-.23-1.23-.23-.86.08-1.23.23c-.37.15-.67.37-.92.64-.25.27-.44.6-.57.98-.13.38-.2.8-.2,1.25s.07.87.2,1.25Z" style="fill:#1d4477; stroke-width:0px;"/><path d="m609.44,45.34c-.61-.27-1.12-.64-1.54-1.12-.42-.48-.74-1.05-.97-1.72s-.34-1.4-.34-2.2.11-1.56.34-2.23c.23-.67.55-1.25.97-1.73.42-.48.92-.85,1.51-1.11.59-.26,1.25-.39,1.98-.39.89,0,1.65.2,2.26.6.61.4,1.09.93,1.44,1.6l.18-1.92h1.96v10.32h-1.86l-.22-1.96c-.32.65-.77,1.19-1.36,1.62s-1.37.64-2.34.64c-.73,0-1.4-.13-2.01-.4Zm3.72-2c.37-.16.68-.39.94-.68.26-.29.46-.64.59-1.04.13-.4.2-.85.2-1.34,0-.97-.26-1.77-.78-2.38-.52-.61-1.24-.92-2.16-.92-.45,0-.86.08-1.22.24-.36.16-.67.39-.93.68-.26.29-.46.64-.59,1.05-.13.41-.2.85-.2,1.33s.07.92.2,1.33c.13.41.33.76.59,1.05.26.29.57.52.93.68.36.16.77.24,1.22.24s.84-.08,1.21-.24Z" style="fill:#1d4477; stroke-width:0px;"/><path d="m621.79,35.11l.26,1.62c.19-.25.4-.5.63-.73s.5-.44.79-.61c.29-.17.62-.31.99-.41.37-.1.76-.15,1.19-.15.52,0,1.01.08,1.46.24.45.16.85.42,1.2.78s.62.82.81,1.39c.19.57.29,1.26.29,2.07v6.12h-2.38v-6.06c0-.77-.16-1.35-.47-1.74s-.76-.58-1.35-.58-1.12.19-1.6.56c-.48.37-.93.83-1.36,1.38v6.44h-2.38v-10.32h1.92Z" style="fill:#1d4477; stroke-width:0px;"/><path d="m631.69,38.09c.21-.67.53-1.25.95-1.73s.93-.85,1.52-1.12c.59-.27,1.28-.4,2.07-.4.83,0,1.51.15,2.05.44.54.29.98.68,1.31,1.16v-5.94h2.36v14.94h-1.94l-.26-1.6c-.36.59-.84,1.05-1.43,1.39-.59.34-1.31.51-2.15.51-.75,0-1.42-.14-2.02-.42-.6-.28-1.11-.66-1.52-1.15-.41-.49-.73-1.06-.94-1.72-.21-.66-.32-1.38-.32-2.17s.11-1.52.32-2.19Zm2.86,4.52c.51.58,1.23.87,2.16.87s1.63-.29,2.13-.87.75-1.36.75-2.33-.25-1.75-.76-2.32-1.21-.86-2.12-.86-1.64.29-2.15.87-.77,1.35-.77,2.31.25,1.75.76,2.33Z" style="fill:#1d4477; stroke-width:0px;"/><path d="m647.17,45.34c-.67-.27-1.23-.64-1.7-1.12-.47-.48-.83-1.05-1.09-1.72s-.39-1.41-.39-2.24.11-1.51.34-2.18.56-1.24.99-1.72c.43-.48.97-.85,1.6-1.12.63-.27,1.36-.4,2.17-.4.73,0,1.39.11,1.98.34.59.23,1.08.55,1.48.98.4.43.71.95.93,1.57.22.62.33,1.31.33,2.07,0,.24-.01.48-.04.71-.03.23-.06.48-.1.73h-7.12c.13.73.43,1.32.9,1.77.47.45,1.13.67,2,.67.61,0,1.19-.1,1.72-.31.53-.21.99-.44,1.38-.71l.98,1.7c-.53.4-1.13.73-1.8.99s-1.43.39-2.3.39-1.59-.13-2.26-.4Zm.79-8.27c-.33.13-.59.3-.8.53-.21.23-.36.49-.46.78-.1.29-.16.6-.17.92h4.94c.03-.71-.15-1.29-.53-1.74s-.99-.68-1.83-.68c-.44,0-.82.06-1.15.19Z" style="fill:#1d4477; stroke-width:0px;"/><path d="m662.45,36.8c.36-.61.84-1.1,1.43-1.45.59-.35,1.32-.53,2.19-.53.76,0,1.44.14,2.04.41.6.27,1.1.66,1.51,1.15.41.49.72,1.07.93,1.74.21.67.32,1.39.32,2.18s-.11,1.53-.32,2.19c-.21.66-.53,1.23-.95,1.71s-.93.86-1.53,1.13c-.6.27-1.29.41-2.06.41-.83,0-1.51-.15-2.06-.45-.55-.3-.98-.69-1.3-1.17v5.42h-2.38v-14.42h1.9l.28,1.68Zm5.79,2.15c-.13-.41-.31-.76-.56-1.05-.25-.29-.55-.52-.92-.68-.37-.16-.78-.24-1.23-.24s-.86.08-1.21.24-.66.39-.91.68c-.25.29-.44.64-.57,1.05-.13.41-.19.85-.19,1.33s.06.94.19,1.34c.13.4.32.75.57,1.05s.56.53.91.69c.35.16.76.24,1.21.24s.86-.08,1.23-.25c.37-.17.67-.4.92-.69.25-.29.43-.64.56-1.05.13-.41.19-.85.19-1.33s-.06-.92-.19-1.33Z" style="fill:#1d4477; stroke-width:0px;"/><path d="m675.14,45.34c-.61-.27-1.12-.64-1.54-1.12-.42-.48-.74-1.05-.97-1.72s-.34-1.4-.34-2.2.11-1.56.34-2.23c.23-.67.55-1.25.97-1.73.42-.48.92-.85,1.51-1.11.59-.26,1.25-.39,1.98-.39.89,0,1.65.2,2.26.6.61.4,1.09.93,1.44,1.6l.18-1.92h1.96v10.32h-1.86l-.22-1.96c-.32.65-.77,1.19-1.36,1.62s-1.37.64-2.34.64c-.73,0-1.4-.13-2.01-.4Zm3.72-2c.37-.16.68-.39.94-.68.26-.29.46-.64.59-1.04.13-.4.2-.85.2-1.34,0-.97-.26-1.77-.78-2.38-.52-.61-1.24-.92-2.16-.92-.45,0-.86.08-1.22.24-.36.16-.67.39-.93.68-.26.29-.46.64-.59,1.05-.13.41-.2.85-.2,1.33s.07.92.2,1.33c.13.41.33.76.59,1.05.26.29.57.52.93.68.36.16.77.24,1.22.24s.84-.08,1.21-.24Z" style="fill:#1d4477; stroke-width:0px;"/><path d="m687.51,35.11l.32,1.7c.12-.25.27-.5.45-.74.18-.24.38-.45.61-.64.23-.19.48-.33.77-.44s.6-.16.95-.16c.31,0,.59.03.86.1.27.07.47.13.62.18v2.34c-.16-.05-.36-.11-.6-.16-.24-.05-.49-.08-.76-.08-.51,0-.93.11-1.28.33s-.63.5-.85.83c-.22.33-.38.7-.49,1.09-.11.39-.16.77-.16,1.13v4.84h-2.38v-10.32h1.94Z" style="fill:#1d4477; stroke-width:0px;"/><path d="m696.05,30.49v8.44h1.5l2.94-3.82h2.92l-3.84,4.96,4.42,5.38h-3.02l-3.4-4.26h-1.52v4.24h-2.38v-14.94h2.38Z" style="fill:#1d4477; stroke-width:0px;"/><path d="m707.11,45.34c-.67-.27-1.23-.64-1.7-1.12-.47-.48-.83-1.05-1.09-1.72s-.39-1.41-.39-2.24.11-1.51.34-2.18.56-1.24.99-1.72c.43-.48.97-.85,1.6-1.12.63-.27,1.36-.4,2.17-.4.73,0,1.39.11,1.98.34.59.23,1.08.55,1.48.98.4.43.71.95.93,1.57.22.62.33,1.31.33,2.07,0,.24-.01.48-.04.71-.03.23-.06.48-.1.73h-7.12c.13.73.43,1.32.9,1.77.47.45,1.13.67,2,.67.61,0,1.19-.1,1.72-.31.53-.21.99-.44,1.38-.71l.98,1.7c-.53.4-1.13.73-1.8.99s-1.43.39-2.3.39-1.59-.13-2.26-.4Zm.79-8.27c-.33.13-.59.3-.8.53-.21.23-.36.49-.46.78s-.16.6-.17.92h4.94c.03-.71-.15-1.29-.53-1.74s-.99-.68-1.83-.68c-.44,0-.82.06-1.15.19Z" style="fill:#1d4477; stroke-width:0px;"/><path d="m717.73,35.11l.32,1.7c.12-.25.27-.5.45-.74.18-.24.38-.45.61-.64.23-.19.48-.33.77-.44s.6-.16.95-.16c.31,0,.59.03.86.1.27.07.47.13.62.18v2.34c-.16-.05-.36-.11-.6-.16-.24-.05-.49-.08-.76-.08-.51,0-.93.11-1.28.33s-.63.5-.85.83c-.22.33-.38.7-.49,1.09-.11.39-.16.77-.16,1.13v4.84h-2.38v-10.32h1.94Z" style="fill:#1d4477; stroke-width:0px;"/></svg>