<?xml version="1.0" encoding="UTF-8"?><svg id="uuid-909d3779-e44f-4735-9fa2-fd5472e02208" xmlns="http://www.w3.org/2000/svg" viewBox="0 0 276.8 192"><rect width="276.8" height="192" rx="10.4" ry="10.4" style="fill:#fff; opacity:.2; stroke-width:0px;"/><path d="m50.88,30.59s-.03,0-.04,0c-.45-.02-.8-.41-.77-.86l.53-10.67c.03-.67-.42-2.1-.78-2.59-.36.48-.81,1.92-.78,2.59l.53,10.67c.02.45-.32.83-.77.86-.43.02-.83-.32-.86-.77l-.53-10.67c-.04-.84.42-2.95,1.31-3.89.41-.43.82-.52,1.1-.52s.69.09,1.1.52c.89.93,1.35,3.05,1.31,3.89l-.53,10.67c-.02.44-.38.77-.81.77Z" style="fill:#e41c1f; stroke-width:0px;"/><path d="m36.49,41.58c-.26,0-.51-.02-.73-.08-.58-.14-.86-.45-1-.69-.14-.24-.27-.64-.1-1.21.36-1.23,1.96-2.69,2.71-3.08l9.5-4.87c.4-.21.89-.05,1.1.35.21.4.05.89-.35,1.1l-9.5,4.87c-.6.3-1.61,1.41-1.85,1.97.59.07,2.07-.26,2.63-.62l8.97-5.79c.38-.24.88-.14,1.13.24.24.38.14.88-.24,1.13l-8.97,5.8c-.58.38-2.08.89-3.29.89Z" style="fill:#e41c1f; stroke-width:0px;"/><path d="m63.15,41.58c-1.21,0-2.71-.51-3.29-.88l-8.97-5.8c-.38-.24-.49-.75-.24-1.13.25-.38.75-.49,1.13-.24l8.97,5.8c.56.36,2.03.69,2.63.62-.24-.55-1.26-1.66-1.85-1.97l-9.5-4.87c-.4-.21-.56-.7-.35-1.1.21-.4.7-.56,1.1-.35l9.5,4.87c.75.38,2.35,1.84,2.71,3.08.17.57.04.97-.1,1.21-.14.24-.42.55-1,.69-.22.05-.47.08-.73.08Zm.27-1.45h0,0Z" style="fill:#e41c1f; stroke-width:0px;"/><path d="m48.05,59.96s-.02,0-.03,0c-.45-.02-.8-.4-.78-.85l.93-24.37c.02-.45.41-.8.85-.78.45.02.8.4.78.85l-.93,24.37c-.02.44-.38.78-.81.78Z" style="fill:#e41c1f; stroke-width:0px;"/><path d="m51.59,59.96c-.44,0-.8-.35-.81-.78l-.93-24.37c-.02-.45.33-.83.78-.85.42-.01.83.33.85.78l.93,24.37c.02.45-.33.83-.78.85-.01,0-.02,0-.03,0Z" style="fill:#e41c1f; stroke-width:0px;"/><path d="m38.09,61.81c-.36,0-.69-.24-.79-.6-.12-.43.14-.88.57-1,7.82-2.14,16.08-2.14,23.9,0,.43.12.69.57.57,1-.12.43-.57.69-1,.57-7.53-2.06-15.5-2.06-23.03,0-.07.02-.14.03-.22.03Z" style="fill:#e41c1f; stroke-width:0px;"/><path d="m49.82,35.23c-1.71,0-3.11-1.39-3.11-3.11s1.39-3.11,3.11-3.11,3.11,1.39,3.11,3.11-1.39,3.11-3.11,3.11Zm0-4.58c-.81,0-1.48.66-1.48,1.48s.66,1.48,1.48,1.48,1.48-.66,1.48-1.48-.66-1.48-1.48-1.48Z" style="fill:#1d1d1b; stroke-width:0px;"/><path d="m58.46,31.84c-.45,0-.82-.37-.82-.82,0-2.09-.81-4.05-2.29-5.53-.32-.32-.32-.83,0-1.15.32-.32.83-.32,1.15,0,1.79,1.79,2.77,4.16,2.77,6.69,0,.45-.37.82-.82.82Z" style="fill:#1d1d1b; stroke-width:0px;"/><path d="m41.18,31.84c-.45,0-.82-.37-.82-.82,0-2.53.98-4.9,2.77-6.69.32-.32.83-.32,1.15,0,.32.32.32.83,0,1.15-1.48,1.48-2.29,3.44-2.29,5.53,0,.45-.37.82-.82.82Z" style="fill:#1d1d1b; stroke-width:0px;"/><path d="m50.91,88.48s-.03,0-.04,0c-.45-.02-.8-.41-.77-.86l.53-10.67c.03-.67-.42-2.1-.78-2.59-.36.48-.81,1.92-.78,2.59l.53,10.67c.02.45-.32.83-.77.86-.43.02-.83-.32-.86-.77l-.53-10.67c-.04-.84.42-2.95,1.31-3.89.41-.43.82-.52,1.1-.52s.69.09,1.1.52c.89.93,1.35,3.05,1.31,3.89l-.53,10.67c-.02.44-.38.77-.81.77Z" style="fill:#305ca7; stroke-width:0px;"/><path d="m36.52,99.47c-.26,0-.51-.02-.73-.08-.58-.14-.86-.45-1-.69-.14-.24-.27-.64-.1-1.21.36-1.23,1.96-2.69,2.71-3.08l9.5-4.87c.4-.21.89-.05,1.1.35.21.4.05.89-.35,1.1l-9.5,4.87c-.6.3-1.61,1.41-1.85,1.97.59.07,2.07-.26,2.63-.62l8.97-5.79c.38-.24.88-.14,1.13.24.24.38.14.88-.24,1.13l-8.97,5.8c-.58.38-2.08.89-3.29.89Z" style="fill:#305ca7; stroke-width:0px;"/><path d="m63.18,99.47c-1.21,0-2.71-.51-3.29-.88l-8.97-5.8c-.38-.24-.49-.75-.24-1.13.25-.38.75-.49,1.13-.24l8.97,5.8c.56.36,2.03.69,2.63.62-.24-.55-1.26-1.66-1.85-1.97l-9.5-4.87c-.4-.21-.56-.7-.35-1.1.21-.4.7-.56,1.1-.35l9.5,4.87c.75.38,2.35,1.84,2.71,3.08.17.57.04.97-.1,1.21-.14.24-.42.55-1,.69-.22.05-.47.08-.73.08Zm.27-1.45h0,0Z" style="fill:#305ca7; stroke-width:0px;"/><path d="m48.08,117.85s-.02,0-.03,0c-.45-.02-.8-.4-.78-.85l.93-24.37c.02-.45.41-.8.85-.78.45.02.8.4.78.85l-.93,24.37c-.02.44-.38.78-.81.78Z" style="fill:#305ca7; stroke-width:0px;"/><path d="m51.62,117.85c-.44,0-.8-.35-.81-.78l-.93-24.37c-.02-.45.33-.83.78-.85.42-.01.83.33.85.78l.93,24.37c.02.45-.33.83-.78.85-.01,0-.02,0-.03,0Z" style="fill:#305ca7; stroke-width:0px;"/><path d="m38.12,119.7c-.36,0-.69-.24-.79-.6-.12-.43.14-.88.57-1,7.82-2.14,16.08-2.14,23.9,0,.43.12.69.57.57,1-.12.43-.57.69-1,.57-7.53-2.06-15.5-2.06-23.03,0-.07.02-.14.03-.22.03Z" style="fill:#305ca7; stroke-width:0px;"/><path d="m49.85,93.12c-1.71,0-3.11-1.39-3.11-3.11s1.39-3.11,3.11-3.11,3.11,1.39,3.11,3.11-1.39,3.11-3.11,3.11Zm0-4.58c-.81,0-1.48.66-1.48,1.48s.66,1.48,1.48,1.48,1.48-.66,1.48-1.48-.66-1.48-1.48-1.48Z" style="fill:#1d1d1b; stroke-width:0px;"/><path d="m58.49,89.73c-.45,0-.82-.37-.82-.82,0-2.09-.81-4.05-2.29-5.53-.32-.32-.32-.83,0-1.15.32-.32.83-.32,1.15,0,1.79,1.79,2.77,4.16,2.77,6.69,0,.45-.37.82-.82.82Z" style="fill:#1d1d1b; stroke-width:0px;"/><path d="m41.21,89.73c-.45,0-.82-.37-.82-.82,0-2.53.98-4.9,2.77-6.69.32-.32.83-.32,1.15,0,.32.32.32.83,0,1.15-1.48,1.48-2.29,3.44-2.29,5.53,0,.45-.37.82-.82.82Z" style="fill:#1d1d1b; stroke-width:0px;"/><path d="m52.19,148.23s-.03,0-.04,0c-.45-.02-.8-.41-.77-.86l.53-10.67c.03-.67-.42-2.1-.78-2.59-.36.48-.81,1.92-.78,2.59l.53,10.67c.02.45-.32.83-.77.86-.43.02-.83-.32-.86-.77l-.53-10.67c-.04-.84.42-2.95,1.31-3.89.41-.43.82-.52,1.1-.52s.69.09,1.1.52c.89.93,1.35,3.05,1.31,3.89l-.53,10.67c-.02.44-.38.77-.81.77Z" style="fill:#4d732c; stroke-width:0px;"/><path d="m37.8,159.22c-.26,0-.51-.02-.73-.08-.58-.14-.86-.45-1-.69-.14-.24-.27-.64-.1-1.21.36-1.23,1.96-2.69,2.71-3.08l9.5-4.87c.4-.21.89-.05,1.1.35.21.4.05.89-.35,1.1l-9.5,4.87c-.6.3-1.61,1.41-1.85,1.97.59.07,2.07-.26,2.63-.62l8.97-5.79c.38-.24.88-.14,1.13.24.24.38.14.88-.24,1.13l-8.97,5.8c-.58.38-2.08.89-3.29.89Z" style="fill:#4d732c; stroke-width:0px;"/><path d="m64.46,159.22c-1.21,0-2.71-.51-3.29-.88l-8.97-5.8c-.38-.24-.49-.75-.24-1.13.25-.38.75-.49,1.13-.24l8.97,5.8c.56.36,2.03.69,2.63.62-.24-.55-1.26-1.66-1.85-1.97l-9.5-4.87c-.4-.21-.56-.7-.35-1.1.21-.4.7-.56,1.1-.35l9.5,4.87c.75.38,2.35,1.84,2.71,3.08.17.57.04.97-.1,1.21-.14.24-.42.55-1,.69-.22.05-.47.08-.73.08Zm.27-1.45h0,0Z" style="fill:#4d732c; stroke-width:0px;"/><path d="m49.36,177.59s-.02,0-.03,0c-.45-.02-.8-.4-.78-.85l.93-24.37c.02-.45.41-.8.85-.78.45.02.8.4.78.85l-.93,24.37c-.02.44-.38.78-.81.78Z" style="fill:#4d732c; stroke-width:0px;"/><path d="m52.9,177.59c-.44,0-.8-.35-.81-.78l-.93-24.37c-.02-.45.33-.83.78-.85.42-.01.83.33.85.78l.93,24.37c.02.45-.33.83-.78.85-.01,0-.02,0-.03,0Z" style="fill:#4d732c; stroke-width:0px;"/><path d="m39.4,179.45c-.36,0-.69-.24-.79-.6-.12-.43.14-.88.57-1,7.82-2.14,16.08-2.14,23.9,0,.43.12.69.57.57,1-.12.43-.57.69-1,.57-7.53-2.06-15.5-2.06-23.03,0-.07.02-.14.03-.22.03Z" style="fill:#4d732c; stroke-width:0px;"/><path d="m51.13,152.87c-1.71,0-3.11-1.39-3.11-3.11s1.39-3.11,3.11-3.11,3.11,1.39,3.11,3.11-1.39,3.11-3.11,3.11Zm0-4.58c-.81,0-1.48.66-1.48,1.48s.66,1.48,1.48,1.48,1.48-.66,1.48-1.48-.66-1.48-1.48-1.48Z" style="fill:#1d1d1b; stroke-width:0px;"/><path d="m59.77,149.47c-.45,0-.82-.37-.82-.82,0-2.09-.81-4.05-2.29-5.53-.32-.32-.32-.83,0-1.15.32-.32.83-.32,1.15,0,1.79,1.79,2.77,4.16,2.77,6.69,0,.45-.37.82-.82.82Z" style="fill:#1d1d1b; stroke-width:0px;"/><path d="m42.49,149.47c-.45,0-.82-.37-.82-.82,0-2.53.98-4.9,2.77-6.69.32-.32.83-.32,1.15,0,.32.32.32.83,0,1.15-1.48,1.48-2.29,3.44-2.29,5.53,0,.45-.37.82-.82.82Z" style="fill:#1d1d1b; stroke-width:0px;"/><text transform="translate(74.4 45.44)" style="fill:#1d1d1b; font-family:ArialMT, Arial; font-size:20px;"><tspan x="0" y="0">Långåsen</tspan></text><text transform="translate(74.4 103.33)" style="fill:#1d1d1b; font-family:ArialMT, Arial; font-size:20px;"><tspan x="0" y="0">Östavall</tspan></text><text transform="translate(74.4 163.08)" style="fill:#1d1d1b; font-family:ArialMT, Arial; font-size:20px;"><tspan x="0" y="0">Närliggande parker</tspan></text></svg>